<svg id="Layer_1" data-name="Layer 1" xmlns="http://www.w3.org/2000/svg" viewBox="0 0 38.21 27.37"><defs><style>.cls-1{fill:#0076b8;}</style></defs><title>Allstate_Logo</title><polyline class="cls-1" points="4.56 25.72 4.56 26.71 4.22 26.71 4.22 25.72 3.34 24.26 3.68 24.19 4.39 25.41 5.09 24.21 5.47 24.21 4.56 25.72"/><path class="cls-1" d="M7.17,32.75a.91.91,0,0,1,0-1.8.9.9,0,0,1,0,1.8m0-1.53c-.31,0-.47.27-.47.63s.16.63.47.63.48-.27.48-.63-.17-.63-.48-.63Z" transform="translate(-1 -6)"/><path class="cls-1" d="M9.47,32.71l0-.25a.91.91,0,0,1-.61.28.46.46,0,0,1-.5-.51V31h.32v1.18c0,.18.08.3.27.3a.74.74,0,0,0,.5-.28V31h.32v1.73H9.47" transform="translate(-1 -6)"/><polyline class="cls-1" points="9.28 25.06 9.09 25.02 9.2 24.21 9.57 24.21 9.28 25.06"/><path class="cls-1" d="M11.13,31.69v1h-.32V31h.26l.05.35a.76.76,0,0,1,.6-.39l.05.31a.79.79,0,0,0-.64.43" transform="translate(-1 -6)"/><path class="cls-1" d="M13.43,31.89H12.26c0,.4.2.59.51.59a1,1,0,0,0,.62-.24l0,.29a1.08,1.08,0,0,1-.69.23c-.45,0-.8-.27-.8-.9a.79.79,0,0,1,.76-.9c.5,0,.73.39.73.87v.07m-.74-.69c-.2,0-.37.14-.42.44h.83c0-.28-.16-.44-.41-.44Z" transform="translate(-1 -6)"/><path class="cls-1" d="M14.76,30.64a.21.21,0,1,1,0-.41.21.21,0,0,1,0,.41m-.17.35h.32v1.73h-.32V31Z" transform="translate(-1 -6)"/><path class="cls-1" d="M16.46,32.71V31.54c0-.18-.07-.3-.26-.3a.74.74,0,0,0-.5.28v1.19h-.32V31h.26l0,.25a1,1,0,0,1,.61-.29.46.46,0,0,1,.5.51v1.26h-.33" transform="translate(-1 -6)"/><path class="cls-1" d="M19.48,31l0,.29-.33,0a.55.55,0,0,1,.07.27.61.61,0,0,1-.66.59h-.13s-.09.07-.09.11.06.07.37.13l.12,0c.37.07.6.18.6.45s-.39.53-.84.53-.81-.14-.81-.44.12-.31.36-.45a.22.22,0,0,1-.11-.18c0-.08.07-.17.18-.24a.56.56,0,0,1-.32-.51.62.62,0,0,1,.66-.6.71.71,0,0,1,.45.15l.44-.13M18.13,32.9c0,.14.18.24.52.24s.52-.11.52-.26-.08-.18-.33-.22l-.21,0-.21,0c-.2.1-.3.2-.3.32Zm.47-1.72a.35.35,0,0,0-.35.37.34.34,0,0,0,.35.35.36.36,0,0,0,0-.73Z" transform="translate(-1 -6)"/><path class="cls-1" d="M20.47,32.75a.91.91,0,0,1,0-1.8.9.9,0,0,1,0,1.8m0-1.53c-.31,0-.46.27-.46.63s.16.63.46.63.48-.27.48-.63-.16-.63-.48-.63Z" transform="translate(-1 -6)"/><path class="cls-1" d="M22.34,32.75a.91.91,0,0,1,0-1.8.9.9,0,0,1,0,1.8m0-1.53c-.31,0-.47.27-.47.63s.16.63.47.63.48-.27.48-.63-.17-.63-.48-.63Z" transform="translate(-1 -6)"/><path class="cls-1" d="M24.69,32.71l0-.25a.71.71,0,0,1-.56.28c-.37,0-.68-.27-.68-.85s.36-.93.78-.93a1.21,1.21,0,0,1,.43.08v-.89l.32,0v2.61h-.25m-.07-1.38a.81.81,0,0,0-.42-.1c-.27,0-.47.22-.47.65s.17.58.4.58a.62.62,0,0,0,.49-.3v-.83Z" transform="translate(-1 -6)"/><path class="cls-1" d="M27.26,32.71V31.54c0-.18-.08-.3-.26-.3a.75.75,0,0,0-.5.28v1.19h-.32V30.15l.32,0v1.11a.92.92,0,0,1,.59-.26.46.46,0,0,1,.5.51v1.26h-.32" transform="translate(-1 -6)"/><path class="cls-1" d="M29.08,32.71l0-.23a.81.81,0,0,1-.61.27.46.46,0,0,1-.51-.48c0-.43.37-.6,1.09-.68v-.07c0-.22-.13-.3-.33-.3a1.51,1.51,0,0,0-.6.15l0-.28a1.65,1.65,0,0,1,.67-.15c.42,0,.62.17.62.55v1.21h-.26M29,31.84c-.64.06-.77.23-.77.41a.23.23,0,0,0,.26.23.75.75,0,0,0,.52-.24v-.4Z" transform="translate(-1 -6)"/><path class="cls-1" d="M30.87,32.71V31.54c0-.18-.08-.3-.26-.3a.74.74,0,0,0-.5.28v1.19h-.32V31H30l0,.25a1,1,0,0,1,.62-.29.46.46,0,0,1,.5.51v1.26h-.32" transform="translate(-1 -6)"/><path class="cls-1" d="M32.83,32.71l0-.25a.7.7,0,0,1-.56.28c-.37,0-.68-.27-.68-.85s.36-.93.78-.93a1.21,1.21,0,0,1,.43.08v-.89l.32,0v2.61h-.26m-.07-1.38a.81.81,0,0,0-.42-.1c-.27,0-.47.22-.47.65s.17.58.4.58a.62.62,0,0,0,.49-.3v-.83Z" transform="translate(-1 -6)"/><path class="cls-1" d="M34.07,32.75a1.43,1.43,0,0,1-.63-.16l0-.31a1.1,1.1,0,0,0,.61.2c.22,0,.35-.08.35-.23S34.35,32,34,32s-.57-.22-.57-.53.23-.48.61-.48a1.34,1.34,0,0,1,.57.12l-.05.3a1.08,1.08,0,0,0-.52-.15c-.2,0-.3.08-.3.2s.09.18.36.25c.43.11.62.23.62.56s-.24.51-.68.51" transform="translate(-1 -6)"/><polygon class="cls-1" points="34.14 26.71 34.5 26.71 34.5 26.28 34.14 26.28 34.14 26.71 34.14 26.71"/><path class="cls-1" d="M38.59,28.43a.6.6,0,0,1-.62-.63.62.62,0,1,1,.62.63m0-1.2a.56.56,0,1,0,.53.56.52.52,0,0,0-.53-.56Zm.18.9-.21-.3h-.07v.29h-.12v-.7h.21c.15,0,.25.07.25.2a.19.19,0,0,1-.14.19l.2.29-.12,0Zm-.19-.6h-.09v.21h.09c.08,0,.13,0,.13-.1s0-.1-.12-.1Z" transform="translate(-1 -6)"/><path class="cls-1" d="M5.78,20.74,1,28.43H2.62l1.22-2H6.59v2H8.13V20.74H5.78m.8,4.34H4.7L6.58,22v3.06Z" transform="translate(-1 -6)"/><polygon class="cls-1" points="8.22 22.43 9.72 22.43 9.72 14.74 8.22 14.74 8.22 22.43 8.22 22.43"/><polygon class="cls-1" points="10.81 22.43 12.31 22.43 12.31 14.74 10.81 14.74 10.81 22.43 10.81 22.43"/><path class="cls-1" d="M16.61,24.8c-.82-.21-1-.33-1-.67s.27-.48.69-.48a3.67,3.67,0,0,1,1.7.49l.09,0,.21-1.28,0,0a4.7,4.7,0,0,0-1.94-.39,2.26,2.26,0,0,0-1.64.59,1.56,1.56,0,0,0-.44,1.14c0,1.18.59,1.52,1.93,1.86.88.22,1.06.35,1.06.77s-.23.52-.83.52a3.7,3.7,0,0,1-2-.63l-.09-.06L14.15,28l0,0a4.76,4.76,0,0,0,2.16.54,2.51,2.51,0,0,0,1.84-.58,1.64,1.64,0,0,0,.44-1.22c0-1.27-.66-1.57-2-1.92" transform="translate(-1 -6)"/><path class="cls-1" d="M22.27,27.13l-.08,0a1.57,1.57,0,0,1-.41,0c-.44,0-.65-.2-.65-.63V23.84h1.1l0-1.25H21.13V20.74H19.65v1.85h-.77v1.25h.77v2.95c0,1.17.61,1.74,1.87,1.74a3.76,3.76,0,0,0,.87-.09h.07l-.19-1.29" transform="translate(-1 -6)"/><path class="cls-1" d="M25.45,22.47a5.77,5.77,0,0,0-2.2.45l-.05,0,.19,1.23.08,0a4.38,4.38,0,0,1,1.79-.44c.59,0,.87.24.87.77v.15c-2.21.23-3.29,1-3.29,2.31a1.51,1.51,0,0,0,1.62,1.61,2.43,2.43,0,0,0,1.77-.76l.1.64h1.29v-4c0-1.33-.69-2-2.19-2m-.52,4.9a.55.55,0,0,1-.6-.59c0-.65.62-1.07,1.8-1.23v1.27a1.74,1.74,0,0,1-1.21.55Z" transform="translate(-1 -6)"/><path class="cls-1" d="M31.48,27.13l-.08,0a1.56,1.56,0,0,1-.41,0c-.45,0-.66-.2-.66-.63V23.84h1.1l0-1.25H30.34V20.74H28.87v1.85H28.1v1.25h.77v2.95c0,1.17.61,1.74,1.87,1.74a3.8,3.8,0,0,0,.87-.09h.07l-.19-1.29" transform="translate(-1 -6)"/><path class="cls-1" d="M36.62,26.68a3.1,3.1,0,0,1-1.84.67c-.8,0-1.3-.54-1.39-1.49h3.49l0-.4c0-2-.82-3-2.45-3a2.35,2.35,0,0,0-1.74.66,3.29,3.29,0,0,0-.82,2.39c0,1.86,1.05,3,2.74,3a3.84,3.84,0,0,0,2.22-.68l0,0-.18-1.22-.09.07m-3.21-1.81c.07-.84.43-1.32,1-1.32.77,0,1,.7,1,1.32Z" transform="translate(-1 -6)"/><path class="cls-1" d="M20,6c-4.35,0-7.89,2.69-7.89,6s3.54,6.2,7.89,6.2,7.89-2.9,7.89-6.2S24.32,6,20,6m0,11.78c-3.77,0-6.83-2.7-6.83-5.78S16.2,6.41,20,6.41,26.8,8.92,26.8,12,23.73,17.78,20,17.78Z" transform="translate(-1 -6)"/><path class="cls-1" d="M18.46,14.57l.14.14.27.15.26.14,0,0,.19.11.32.18h.06l.41,0a1.77,1.77,0,0,1,.7.08.24.24,0,0,1,.13.29s.21-.15.17-.33-.2-.35-.8-.39a3.88,3.88,0,0,0-.47,0h0l-.27-.18-.11-.06-.37-.2-.23-.09-.2-.29L18.58,14l-.22-.31-.09-.14-.12-.19a.54.54,0,0,0,.11-.36s0,0-.11.1a1.8,1.8,0,0,1-.51.23l-.08,0,.9,1.18m1-.45,0,.05.27.12a4.47,4.47,0,0,1,.51.24l.29.17s.32,0,.52,0a.69.69,0,0,1,.53.26.34.34,0,0,1,0,.39.56.56,0,0,0,.29-.47c0-.27-.25-.52-1.11-.51l-.24-.14-.07,0-.38-.2-.31-.11h0a1.51,1.51,0,0,0-.07-.14,4.52,4.52,0,0,0-.36-.52l0,0-.24-.33a.61.61,0,0,0,0-.35,1,1,0,0,1-.09.14,1.32,1.32,0,0,1-.32.26l-.06,0L19.37,14l.08.12Zm.35-1.91a.51.51,0,0,0,0-.34l0,.11a.77.77,0,0,1-.3.31l0,0,.63.9,0,.06.12.16.26.16.09.05.29.17.26.17h0l.39,0a.86.86,0,0,1,.44.16.35.35,0,0,1,.11.44.53.53,0,0,0,.11-.65.63.63,0,0,0-.52-.27l-.4-.06L21,13.5l-.28-.18-.07,0-.23-.1-.61-1ZM17.17,6.84l.09.09.32.29.18.17c.13.13.17.2.16.22s0,0-.05.05l-.06,0,0,.12h.08a1.64,1.64,0,0,1,1.07.52,3,3,0,0,1,.86,1.75l.35,1.81.13.28,0,.06.06.12a1.11,1.11,0,0,0,.13.23l.18.14.25.26L21,13l.12.12.36.05c.62.1.59.44.59.44s.37-.56-.51-.76l-.28-.05h0l-.1-.14,0,0-.27-.26-.12-.11L20.65,12l-.15-.37a3.56,3.56,0,0,1-.1-.55l0-.18-.11-.76,0-.15A3.75,3.75,0,0,1,20.59,9a1.89,1.89,0,0,1,.59-.67,3.1,3.1,0,0,1,1-.33.14.14,0,0,0,.13-.11v0h0A.82.82,0,0,1,22,7.8v0a.24.24,0,0,1,0-.11l.19-.18.11-.11.52-.51-.43-.14-.48.49A4.6,4.6,0,0,1,21.1,8a2,2,0,0,0-1,.93L20,9.22a2.81,2.81,0,0,0-.48-.89,2.1,2.1,0,0,0-.85-.61c-.19-.18-.8-.74-1.13-1l-.4.13ZM18.81,16c-.56.29-.87,0-.74-.26a2.09,2.09,0,0,0,.74.26Zm-1-.43c-.38.1-.52-.16-.43-.38a3.42,3.42,0,0,0,.43.38ZM14.4,8.68l.1.08.56.46-.21.57a4.25,4.25,0,0,0-.37,1.26v.06l.16.81V12c.09.42.18.9.23,1.25,0,.1,0,.16.07.18A6.69,6.69,0,0,1,16,15.1l0,.05a.48.48,0,0,0,.17.26.4.4,0,0,0,.35,0,1.31,1.31,0,0,0,.51-.64l.15.19a.53.53,0,0,0,.56.85c-.14.42.39.75.89.53a.53.53,0,0,0,.49.39,3.22,3.22,0,0,0,.93,0,4.67,4.67,0,0,0,1.55-.39,2.62,2.62,0,0,0,1-.85l.05-.07a1.36,1.36,0,0,0,.18.26.56.56,0,0,0,.45.21.28.28,0,0,0,.21-.18A7.4,7.4,0,0,1,24.67,14l0-.07c.09-.33.4-1.15.56-1.59l.12-.32,0-.08c0-.13,0-.25,0-.38A5,5,0,0,0,25.19,10,2.87,2.87,0,0,0,25,9.52l-.08-.15a3.16,3.16,0,0,1,.71-.57h0l-.33-.36-.23.16a.75.75,0,0,1-.62.17l-.22-.12,0,0H24L24,8.7a2.47,2.47,0,0,1,.31.5l.06.11.06.13a5.8,5.8,0,0,1,.3.93,6.51,6.51,0,0,1,.2,1.42v0l-.18.52c-.19.54-.43,1.21-.48,1.48v0a5.35,5.35,0,0,0-1,1.53s0,.06,0,.06-.08-.05-.12-.08a.81.81,0,0,1-.19-.61,1,1,0,0,1,.37-.76s0-.08,0-.11a1.26,1.26,0,0,1,.26-1l.06,0-.06,0a2.86,2.86,0,0,1-1-2v-.09l-.1,0,0,.07a2.07,2.07,0,0,0,0,.39,3.27,3.27,0,0,0,.09.75,2.38,2.38,0,0,0,.54,1h0a1.51,1.51,0,0,0-.17.78,1.27,1.27,0,0,0,0,.22,1.14,1.14,0,0,0-.39.8v.24l-.14.18,0,0a2.42,2.42,0,0,1-.94.89,4.57,4.57,0,0,1-2.12.38.22.22,0,0,1-.21-.25.15.15,0,0,1,0-.09l.06-.07a2.9,2.9,0,0,0,1.41-.13l.08-.12,0-.05h-.06a4.19,4.19,0,0,1-2.06-.27,2.73,2.73,0,0,1-1.27-1.14l-.14-.18a1.12,1.12,0,0,0-.14-.52.93.93,0,0,0-.22-.26,1.37,1.37,0,0,0,.06-.42,1.16,1.16,0,0,0-.12-.56,1.15,1.15,0,0,0,.54-.91,1.62,1.62,0,0,0-.09-.4L17.07,11v.09c.06.57-.47.93-.82,1.18l-.1.07.07,0c.27.17.28.75.22,1.07v0h0l.13.11a1.05,1.05,0,0,1,0,1.28c-.06.06-.09.07-.11.07s-.08-.11-.09-.15l-.09-.18a6.13,6.13,0,0,0-.9-1.47v0c-.09-.73-.2-1.26-.31-1.78L15,11.09V11a4.57,4.57,0,0,1,.4-1.49l.12-.31.1-.24,0,0a2.17,2.17,0,0,1,.47-.47l.09-.06-.11,0a1.45,1.45,0,0,0-.43.13l0,0a.66.66,0,0,1-.48.08l-.38-.23-.32.33Z" transform="translate(-1 -6)"/></svg>