<svg id="Layer_1" data-name="Layer 1" xmlns="http://www.w3.org/2000/svg" viewBox="0 0 69 59.56"><defs><style>.cls-1{fill:#00cbc4;}</style></defs><title>Percy</title><path class="cls-1" d="M55.27,58.89c.38-.38.68-.67,1-.9a8.87,8.87,0,0,0-.5,2.32,6.22,6.22,0,0,0,2.77,5.94c-2.49,0-3.41-.87-4.82-2.1A3.92,3.92,0,0,1,53,63.4c0-.05,0-.11,0-.16C52.86,61.53,54.14,60,55.27,58.89Z" transform="translate(-2.5 -7.68)"/><path class="cls-1" d="M31.73,59.93l1.05-.06c-1.23,1.29-1.51,3.32-.6,5.63l1.64.75H31.3s-.67-.61-1.67-1.7c-.37-.4-.75-.77-1.15-1.13l0-.38A3.37,3.37,0,0,1,31.73,59.93Z" transform="translate(-2.5 -7.68)"/><path class="cls-1" d="M68.33,48.58a16.23,16.23,0,0,1-1.95-3.36l-.05-.13c-.12-.39-.28-.79-.36-1.22s-.18-.87-.26-1.33-.1-.92-.1-1.37,0-.91,0-1.36.08-.88.17-1.28A10.75,10.75,0,0,1,66,37.38a9,9,0,0,1,.3-1,7,7,0,0,1,.28-.73L66.9,35l-.48.5a7,7,0,0,0-.53.61,9.46,9.46,0,0,0-.64.84,12,12,0,0,0-.69,1.07c-.24.39-.44.82-.67,1.28s-.41.94-.57,1.45a12.87,12.87,0,0,0-.37,1.26l0,.11c-.13-.15-.25-.31-.38-.48l-.31-.44c-.15-.2-.25-.43-.39-.65a5.73,5.73,0,0,1-.37-.71c-.11-.25-.24-.5-.35-.77l-.31-.83c-.18-.58-.37-1.17-.5-1.79s-.25-1.25-.36-1.88-.18-1.26-.23-1.88c-.13-1.23-.2-2.4-.26-3.4L59.31,26l-.73,3.29c-.21,1-.45,2.15-.65,3.42-.11.63-.19,1.29-.28,2s-.14,1.38-.16,2.09c0,.11,0,.22,0,.32s0,0,0,0L57.41,37l-.29-.42c-1.2-1.77-2.74-4.19-4.17-6.69-.36-.62-.71-1.25-1-1.88s-.67-1.24-1-1.84-.61-1.19-.88-1.75-.53-1.09-.75-1.59l-.62-1.35-.45-1.06-.39-.93.15,1,.18,1.14.27,1.47c.09.54.22,1.13.35,1.74s.27,1.27.44,1.94.32,1.37.51,2.07c.14.55.29,1.1.45,1.65l.13.47q.19.66.38,1.32L50.39,32l-.16-.31c-.32-.57-.66-1.22-1.07-1.9L49,29.53c-.36-.62-.75-1.26-1.17-1.94s-1-1.57-1.53-2.38-1.11-1.66-1.7-2.49S43.4,21,42.79,20.19s-1.24-1.67-1.88-2.46S39.66,16.14,39,15.39s-1.23-1.46-1.81-2.14S36.08,12,35.57,11.38s-1-1.08-1.44-1.54S33.31,9,33,8.68l-1-1,.81,1.16c.26.37.57.81.91,1.34s.74,1.1,1.15,1.75.86,1.35,1.3,2.11.93,1.54,1.39,2.38S38.51,18.1,39,19s.93,1.79,1.4,2.69.9,1.82,1.32,2.73l.48,1,.63,1.42q-.63-.3-1.26-.55L41,26c-.61-.41-1.3-.83-2.06-1.29l-.68-.39c-.57-.33-1.16-.66-1.8-1l-1.36-.71-1.44-.7c-1-.47-2-.92-3-1.37s-2.11-.87-3.19-1.26-2.16-.77-3.23-1.13-2.13-.66-3.16-1-2-.55-3-.77-1.85-.43-2.69-.59l-2.28-.42c-.68-.12-1.28-.19-1.76-.27l-1.53-.22,1.48.46c.47.15,1,.31,1.69.54l2.16.77c.79.29,1.63.64,2.52,1s1.81.79,2.77,1.2,1.92.91,2.89,1.41,2,1,2.91,1.57,1.91,1.11,2.84,1.68q1.1.69,2.13,1.39l.53.35.55.38-.14,0-.15,0-1.14-.3-.44-.11L29.37,25c-.56-.11-1.15-.25-1.8-.36s-1.33-.22-2-.31-1.45-.16-2.2-.18-1.51,0-2.27,0-1.51.08-2.25.2c-.37.05-.73.09-1.08.16l-1,.21c-.68.14-1.32.35-1.93.51l-1.67.59-1.36.6c-.41.17-.74.37-1,.51l-.87.46,1-.23c.31-.06.67-.18,1.1-.24l1.43-.24L15,26.51c.6,0,1.23-.05,1.88,0l1,0c.33,0,.66.07,1,.1.67.06,1.34.21,2,.32s1.31.3,1.95.51,1.25.42,1.83.63l1.19.5.48.21.51.24-.06.05-.21,0c-.31,0-.66-.1-1-.14l-.16,0c-.43,0-.88-.07-1.35-.07s-1,0-1.47,0-1,.07-1.53.15-1,.15-1.54.24-1,.21-1.51.34-1,.26-1.42.42-.89.31-1.29.47-.78.34-1.12.49-.64.33-.91.47-.5.28-.68.39l-.57.36.66-.13a7.66,7.66,0,0,1,.76-.12c.3,0,.62-.09,1-.11s.74-.06,1.16-.05.84,0,1.28,0,.9.06,1.35.1.92.12,1.37.2.91.17,1.34.29.86.24,1.26.35l.49.17c.22.08.43.15.63.24l.26.11-.37,0-.8.1-.9.15c-.61.13-1.26.26-1.93.46s-1.36.43-2.07.67-1.41.55-2.11.9-1.39.71-2.07,1.07-1.34.79-2,1.23c-.31.22-.62.42-.92.64l-.87.67c-.57.42-1.08.9-1.58,1.32S7,41.34,6.6,41.72s-.75.78-1.06,1.11-.56.64-.78.89l-.66.78.83-.6c.27-.19.57-.43,1-.67l1.26-.81c.48-.27,1-.58,1.54-.87s1.13-.6,1.76-.86l.94-.41,1-.38c.65-.26,1.34-.45,2-.67s1.36-.37,2-.49,1.34-.23,2-.33,1.17-.11,1.72-.12h.11c.35,0,.67,0,1,0l0,.09a6.75,6.75,0,0,0-.76.14l-.42.12a6.72,6.72,0,0,0-.72.25,11.68,11.68,0,0,0-1.13.51c-.37.2-.74.4-1.1.63s-.71.46-1,.71-.66.51-1,.76-.61.52-.88.79a18,18,0,0,0-1.41,1.5c-.2.22-.36.44-.51.63s-.27.36-.37.5l-.3.44.46-.26c.14-.09.33-.18.54-.28s.44-.22.71-.33a16.74,16.74,0,0,1,1.8-.67c.33-.11.68-.19,1-.29s.7-.16,1.06-.22.7-.11,1-.14l.54,0h.89l-.23.08a6.63,6.63,0,0,0-.75.33l-.19.09c-.32.15-.64.35-1,.54s-.68.42-1,.67-.67.5-1,.77-.65.56-1,.85a21.14,21.14,0,0,0-2.94,3.47c-.34.5-.6.93-.77,1.24l-.27.48.45-.31c.28-.2.7-.47,1.2-.76A19.23,19.23,0,0,1,16,48.89c.35-.11.71-.21,1-.3s.68-.16,1-.21.63-.08.92-.12h.13a27.68,27.68,0,0,0,.12,4.43l-.1.1a10.08,10.08,0,0,1-.84.72l-.38.28c-.24.16-.49.35-.77.5l-.41.24-.43.22c-.29.15-.59.27-.89.39s-.61.21-.91.31-.6.15-.89.23a6.67,6.67,0,0,1-.82.15c-.26,0-.5.08-.71.09l-.56,0L11,56l.44.22.52.25c.2.1.44.18.7.28a7.63,7.63,0,0,0,.86.29c.31.08.65.2,1,.26s.72.16,1.1.19l.51.06-.22.07c-.64.23-1.29.38-1.94.54s-1.3.25-1.93.38l-.47.08-.47,0-.91.08a13.46,13.46,0,0,1-1.68.07c-.52,0-1,0-1.43,0L6,58.67l-1-.08.92.32L7,59.28c.41.15.9.24,1.42.37a14,14,0,0,0,1.71.36l1,.15.5.08.51,0c.52,0,1.07.1,1.62.12l-.16.13-.83.56c-.55.4-1.14.71-1.72,1.05s-1.18.6-1.76.89l-.43.21-.44.17-.85.33a13.39,13.39,0,0,1-1.59.53c-.5.14-1,.3-1.38.38l-1.09.22-1,.19,1,.06,1.13.06c.44,0,.93,0,1.47,0A14.21,14.21,0,0,0,7.82,65l1-.11.5-.06.5-.1c.67-.15,1.39-.24,2.08-.46s1.43-.38,2.12-.65L15,63.27l1-.44c.69-.28,1.33-.63,2-.94s1.22-.68,1.78-1l.51-.33c.3-.2.59-.39.87-.59a21.36,21.36,0,0,0,3.69,5.61c.78.85,1.38,1.43,1.64,1.68H29.2l-1-.45-1-.46L27.47,63a4.4,4.4,0,0,1,4.21-4.05l9.7-.58a6,6,0,0,1,5.23,3.09,9.45,9.45,0,0,0,2.57,3.18,12.4,12.4,0,0,0,4.95,2.48A5.9,5.9,0,0,1,52,63.34c-.19-2.14,1.27-3.89,2.55-5.18C56.26,56.43,57,56,59.11,56.71l4.88,1a11,11,0,0,1-.45-4.43,7.68,7.68,0,0,0,3.78,4.21,10,10,0,0,0,1.91-1c1.18-.78,2.38-1.72,2.27-2.55C71.19,51.88,69.53,50.25,68.33,48.58Zm-41.58-12a12.49,12.49,0,0,1,1.63-.19,9.83,9.83,0,0,1,1.1,0c.39,0,.8,0,1.23,0s.87,0,1.31.12.89.12,1.34.2.89.18,1.32.29.85.23,1.26.35.79.26,1.16.39.71.27,1,.41a12.34,12.34,0,0,1,2,1.07l-2.19-.5-2.22-.49L34.45,38c-.42-.09-.86-.17-1.29-.24-.86-.17-1.74-.3-2.55-.43l-1.18-.17L28.36,37l-.91-.12-.7-.08-.62-.09ZM29.89,46l-.89.26c-.59.16-1.13.35-1.63.52s-1,.31-1.37.47l-1,.4-.93.33.84-.52,1-.58c.38-.22.83-.42,1.32-.66a15,15,0,0,1,1.6-.7c.58-.21,1.18-.48,1.83-.66l1-.29a9.43,9.43,0,0,1,1-.27c.7-.15,1.39-.33,2.11-.43s1.43-.22,2.14-.28,1.4-.1,2.08-.13,1.33,0,1.95,0,1.2.06,1.74.13a18.1,18.1,0,0,1,3.52.67s-1.43-.11-3.55-.08c-.53,0-1.1,0-1.71,0s-1.24.07-1.9.12-1.33.12-2,.21-1.38.18-2.07.3-1.38.25-2.06.38-1.33.31-2,.46C30.5,45.77,30.19,45.86,29.89,46Zm22.48,4.4h-1.1c-.42,0-.9,0-1.42,0s-1.08.07-1.68.12-1.22.12-1.86.2-1.3.19-2,.28-1.35.25-2,.37l-2,.44c-.66.18-1.31.33-1.94.49s-1.23.36-1.8.52-1.11.36-1.61.51-1,.29-1.36.44l-1,.36-.92.3.84-.48,1-.54c.37-.21.82-.41,1.3-.63s1-.47,1.57-.68,1.17-.44,1.79-.66,1.29-.4,2-.59l2.06-.49c.7-.11,1.39-.25,2.09-.34s1.37-.17,2-.2,1.3-.06,1.91-.06,1.18,0,1.71.06a20.6,20.6,0,0,1,2.54.33c.61.13.94.24.94.24S53,50.36,52.37,50.36ZM52.88,40c-.53-.33-1.28-.79-2.18-1.32l-1.48-.84L47.55,37c-.57-.32-1.19-.61-1.79-.94s-1.24-.62-1.87-.93L42,34.2c-.63-.27-1.24-.58-1.84-.85s-1.19-.52-1.74-.77l-1.56-.68c-1-.43-1.78-.76-2.35-1l-.89-.4,1,.21c.6.14,1.47.33,2.49.65.51.16,1.07.31,1.64.51s1.18.41,1.81.65,1.26.5,1.9.78l1.93.88c.63.33,1.27.65,1.89,1s1.21.68,1.78,1,1.11.7,1.62,1,1,.69,1.4,1,.81.63,1.14.91.61.53.84.74.4.38.52.5l.18.18Zm10.89,9.8a1.38,1.38,0,1,1,.81-1.66A1.31,1.31,0,0,1,63.77,49.84Z" transform="translate(-2.5 -7.68)"/></svg>