<svg id="Layer_1" data-name="Layer 1" xmlns="http://www.w3.org/2000/svg" viewBox="0 0 70.69 31.05"><defs><style>.cls-1{fill:#071c34;}</style></defs><title>tc-logo-trees</title><polygon class="cls-1" points="58.82 5.67 59.94 6.58 60.89 7.53 61.79 8.52 62.77 9.45 63.67 10.44 64.69 11.32 65.57 12.31 64.58 13.19 63.82 14.33 62.8 15.21 61.93 16.23 60.81 17.02 59.79 17.9 59.08 18.97 59.87 19.75 60.7 20.63 61.51 21.66 62.54 20.71 63.26 19.59 64.14 18.64 65.07 17.71 66 16.81 67.07 16.03 67.85 14.97 68.97 14.25 69.82 13.26 70.69 12.31 69.88 11.31 68.96 10.38 67.91 9.6 67.02 8.64 66.07 7.76 65.3 6.69 64.36 5.78 63.3 5 62.5 3.96 61.51 3.16 60.73 4.03 59.92 4.94 58.82 5.67"/><polygon class="cls-1" points="11.64 18.96 10.77 17.9 9.62 17.16 8.75 16.12 7.85 15.13 6.77 14.31 5.83 13.35 5 12.31 5.86 11.3 6.94 10.49 7.91 9.56 8.88 8.63 9.63 7.49 10.71 6.67 11.63 5.66 10.76 4.82 9.88 3.99 9.06 3.27 8.03 3.92 7.18 4.92 6.34 5.92 5.4 6.81 4.42 7.67 3.59 8.69 2.61 9.54 1.68 10.46 0.71 11.33 0 12.31 0.84 13.16 1.75 14.09 2.73 14.96 3.48 16.04 4.4 16.96 5.36 17.84 6.26 18.79 7.29 19.59 8.14 20.59 9.06 21.49 9.96 20.72 10.79 19.84 11.64 18.96"/><polygon class="cls-1" points="56.62 27.02 56.01 26.02 55.55 24.75 54.63 23.77 54.11 22.55 53.25 21.52 52.57 20.39 52 19.2 51.32 18.04 53.18 18.09 52.62 16.84 51.91 15.73 51.18 14.64 50.47 13.52 49.73 12.43 49.22 11.2 48.29 10.22 47.65 8.94 49.64 9.12 48.99 7.8 48.18 6.76 47.48 5.64 46.82 4.5 46.17 3.35 45.51 2.22 44.8 1.1 44.11 0.04 43.33 1.05 42.7 2.21 41.99 3.32 41.55 4.58 40.67 5.6 39.98 6.72 39.25 7.82 38.77 8.94 40.39 9.12 39.78 10.13 39.24 11.34 38.4 12.38 37.85 13.58 37.24 14.75 36.48 15.83 35.78 16.95 34.99 18.14 36.97 17.95 36.36 19.12 35.52 19.98 35.07 21.19 34.55 20.02 33.95 19.01 33.37 18.2 35.08 18.07 34.24 17.02 33.83 15.73 33.06 14.66 32.24 13.61 31.64 12.43 30.84 11.37 30.33 10.14 29.61 8.99 31.45 9.02 30.89 7.81 30.25 6.67 29.4 5.64 28.59 4.59 27.91 3.46 27.52 2.16 26.77 1.07 26.02 0 25.23 1.04 24.7 2.25 24.12 3.45 23.31 4.49 22.76 5.7 21.9 6.72 21.21 7.84 20.59 9.03 22.43 9 21.8 10.19 21.21 11.37 20.53 12.5 19.85 13.63 19.06 14.69 18.44 15.86 17.66 16.93 17.1 17.95 18.67 18.18 18.26 19.28 17.29 20.23 16.74 21.43 16.01 22.54 15.38 23.69 14.66 24.8 14.2 26.06 13.25 27.16 14.65 27.25 15.93 27.11 17.21 27.13 18.49 27.22 19.77 27.21 21.05 27.01 22.33 27.26 23.73 26.98 23.47 28.37 23.72 29.64 23.61 30.91 24.82 31.05 26.02 30.75 27.23 30.9 28.41 30.88 28.6 29.64 28.47 28.37 28.33 26.97 29.95 27.17 31.45 27.03 32.66 26.99 33.86 27.11 35.06 27.04 36.27 27.21 37.48 27.04 38.68 26.94 40.19 26.96 41.78 26.99 41.68 28.37 41.59 29.64 41.7 30.9 42.9 30.81 44.1 30.99 45.31 30.77 46.47 30.86 46.62 29.64 46.62 28.37 46.45 27.03 47.8 27.04 49.08 26.96 50.36 27.18 51.64 26.96 52.92 27.15 54.2 27.07 55.48 27.13 56.62 27.02"/></svg>